<svg xmlns="http://www.w3.org/2000/svg" xmlns:xlink="http://www.w3.org/1999/xlink" xml:space="preserve" version="1.1" style="shape-rendering:geometricPrecision;text-rendering:geometricPrecision;image-rendering:optimizeQuality;" viewBox="0 0 333 416.25" x="0px" y="0px" fill-rule="evenodd" clip-rule="evenodd"><defs><style type="text/css">
   
    .fil0 {fill:black}
    .fil1 {fill:black;fill-rule:nonzero}
   
  </style></defs><g><g><path class="fil0" d="M169 103c34,0 62,26 65,60 -6,-14 -20,-24 -38,-25l0 0 0 0c-7,1 -12,2 -18,5 -3,-2 -6,-3 -9,-2 -3,-1 -7,0 -9,2 -6,-3 -12,-4 -18,-5l0 0 0 0c-18,1 -32,11 -38,25 2,-34 31,-60 65,-60zm39 117c-11,8 -24,13 -39,13 -15,0 -28,-5 -39,-13 3,1 8,2 12,2l0 0 0 0c8,0 15,-2 22,-6 1,1 3,1 4,1 2,0 4,0 6,-1 7,4 14,6 22,6l0 0 0 0c4,0 8,-1 12,-2zm-39 -58c-5,2 -10,0 -13,-5 -1,-2 -1,-4 -1,-7 -4,-1 -9,-3 -13,-2l0 0 0 0c-17,-1 -33,15 -33,32l0 0 0 0c0,18 16,33 33,33l0 0 0 0c6,0 11,-2 16,-5 0,0 0,-1 0,-2 0,-3 1,-6 4,-8 2,-2 4,-3 7,-3 3,0 6,1 8,3l0 0c2,3 3,5 3,8 0,1 0,2 0,2 4,3 10,5 16,5l0 0 0 0c17,0 33,-15 33,-33l0 0 0 0c0,-17 -16,-33 -33,-32l0 0 0 0c-4,-1 -9,1 -13,2 1,4 -1,8 -4,10 -3,3 -7,3 -10,2z"/><path class="fil1" d="M167 267c2,0 4,2 4,5 0,2 -2,4 -4,4l0 0 0 0c-30,0 -58,-12 -78,-32 -19,-20 -31,-47 -31,-77l0 0 0 0 0 0 0 0c0,-30 12,-58 31,-78 20,-19 48,-31 78,-31l0 0 0 0 0 0 0 0c30,0 57,12 77,31 20,20 32,48 32,78l0 0 0 0c0,2 -2,4 -4,4 -3,0 -5,-2 -5,-4l0 0 0 0c0,-28 -11,-53 -29,-72 -18,-18 -44,-29 -71,-29l0 0 0 0 0 0 0 0c-28,0 -53,11 -72,29 -18,19 -29,44 -29,72l0 0 0 0 0 0 0 0c0,27 11,53 29,71 19,18 44,29 72,29l0 0 0 0z"/><path class="fil1" d="M218 235c2,-1 5,-1 6,1 2,2 1,4 -1,6l0 0c-2,1 -4,3 -7,5 -2,1 -5,2 -7,4 -13,6 -28,10 -42,10l0 0 0 0c-26,0 -50,-11 -67,-28 -17,-17 -27,-40 -27,-66l0 0 0 0 0 0 0 0c0,-26 10,-50 27,-67 17,-17 41,-27 67,-27l0 0 0 0 0 0 0 0c7,0 15,1 22,2 1,1 3,1 4,1 6,2 11,4 17,7 2,1 3,4 2,6 -1,2 -4,3 -6,2 -5,-3 -10,-5 -16,-7 -1,0 -2,0 -3,-1 -7,-1 -13,-2 -20,-2l0 0 0 0 0 0 0 0c-24,0 -45,10 -61,25 -15,16 -25,37 -25,61l0 0 0 0 0 0 0 0c0,23 10,45 25,60 16,16 37,25 61,25l0 0 0 0c13,0 26,-3 38,-9 2,-1 5,-2 7,-4 2,-1 4,-2 6,-4l0 0 0 0z"/><path class="fil1" d="M231 229c10,-9 -9,-21 -14,-9 -1,3 0,6 1,8 -14,12 -33,19 -51,19 -43,0 -80,-37 -79,-79 -1,-43 36,-80 79,-79 15,-1 31,5 44,13 -2,4 -1,8 3,11 9,5 18,-7 10,-14 -4,-3 -8,-2 -10,0 -14,-9 -30,-14 -47,-14 -47,0 -83,36 -84,83 1,46 37,82 84,83 20,-1 39,-7 54,-20 3,2 7,2 10,-2z"/><path class="fil1" d="M177 210c0,-2 0,-3 0,-4 1,-2 0,-4 -2,-6 -2,-2 -4,-3 -6,-3 -2,0 -4,1 -6,3 -2,1 -3,4 -3,6 0,1 1,2 1,4 -6,3 -13,6 -19,5 -19,1 -36,-16 -35,-35 -1,-18 16,-36 35,-35 5,0 11,1 16,4 -1,2 -1,4 0,7 3,4 7,5 11,3 2,2 6,2 8,-1 4,-3 4,-6 3,-9 5,-3 11,-4 16,-4 19,-1 36,17 35,35 1,19 -16,36 -35,35 -7,1 -14,-2 -19,-5zm-8 -66c-3,-1 -7,-1 -9,2 -5,-3 -11,-5 -18,-5 -23,1 -39,17 -40,39 1,23 17,39 40,40 8,-1 15,-3 22,-7 1,1 3,1 5,1 1,1 3,0 5,-1 6,4 14,6 22,7 22,-1 38,-17 39,-40 -1,-22 -17,-38 -39,-39 -7,0 -13,2 -18,5 -3,-3 -6,-4 -9,-2z"/></g></g><text x="0" y="348" fill="#000000" font-size="5px" font-weight="bold" font-family="'Helvetica Neue', Helvetica, Arial-Unicode, Arial, Sans-serif">Created by Rafina Andra</text><text x="0" y="353" fill="#000000" font-size="5px" font-weight="bold" font-family="'Helvetica Neue', Helvetica, Arial-Unicode, Arial, Sans-serif">from the Noun Project</text></svg>